<?xml version="1.0" standalone="no"?>
<!DOCTYPE svg PUBLIC "-//W3C//DTD SVG 20010904//EN"
 "http://www.w3.org/TR/2001/REC-SVG-20010904/DTD/svg10.dtd">
<svg version="1.0" xmlns="http://www.w3.org/2000/svg"
 width="554.000000pt" height="450.000000pt" viewBox="0 0 554.000000 450.000000"
 preserveAspectRatio="xMidYMid meet">

<g transform="translate(0.000000,450.000000) scale(0.100000,-0.100000)"
fill="#000000" stroke="none">
<path d="M2515 4480 c-501 -65 -999 -312 -1338 -665 -356 -368 -585 -842 -639
-1319 -54 -470 53 -964 295 -1366 43 -72 155 -239 171 -256 6 -7 31 -36 56
-65 88 -105 136 -153 240 -241 58 -49 112 -95 120 -102 8 -7 69 -49 135 -93
125 -82 323 -184 435 -223 36 -12 74 -26 85 -30 36 -15 159 -48 240 -65 44 -9
100 -21 125 -27 66 -15 459 -22 565 -9 187 22 361 61 460 101 11 4 49 18 85
30 112 39 310 140 435 223 66 44 125 84 130 91 6 6 26 22 45 36 73 51 241 213
320 309 25 29 50 58 56 65 16 17 127 183 174 261 131 216 225 472 276 760 15
79 18 153 18 355 0 223 -2 270 -22 375 -76 397 -251 765 -519 1088 -149 179
-450 414 -677 529 -91 46 -237 109 -296 128 -76 25 -204 60 -270 74 -41 9 -95
22 -120 28 -54 13 -500 19 -585 8z m565 -241 c245 -38 515 -137 740 -272 78
-47 198 -130 210 -146 3 -3 22 -19 43 -34 69 -52 236 -225 289 -300 23 -33 35
-48 53 -70 42 -48 156 -256 207 -377 211 -503 211 -1085 -2 -1585 -58 -136
-174 -343 -219 -391 -9 -11 -22 -27 -27 -37 -9 -16 -20 -3 -72 85 -187 318
-432 544 -763 708 -68 34 -132 66 -141 71 -10 5 -22 9 -27 9 -5 0 -22 5 -38
11 -24 9 -26 12 -12 22 9 7 31 23 49 37 60 44 181 163 226 222 93 120 173 301
199 452 54 315 -44 622 -279 873 -101 108 -177 164 -311 228 -171 82 -247 100
-440 99 -151 -1 -166 -3 -265 -33 -210 -65 -374 -170 -507 -324 -261 -303
-330 -668 -195 -1032 52 -140 120 -242 247 -370 70 -70 100 -97 174 -152 14
-10 12 -13 -12 -22 -16 -6 -33 -11 -38 -11 -5 0 -17 -4 -27 -9 -9 -6 -69 -35
-132 -65 -337 -161 -605 -416 -800 -760 -29 -51 -34 -56 -43 -40 -10 18 -18
29 -42 57 -22 25 -121 195 -159 272 -52 107 -111 265 -142 383 -75 289 -83
668 -18 957 71 317 226 626 434 869 51 59 188 194 229 224 20 15 38 30 41 33
11 15 129 98 201 141 268 163 575 268 844 288 120 10 434 3 525 -11z m-100
-644 c155 -38 325 -149 426 -280 66 -85 131 -224 150 -320 85 -444 -139 -834
-551 -956 -89 -26 -307 -37 -394 -20 -155 31 -358 142 -445 244 -111 131 -167
261 -190 438 -31 233 19 428 154 608 120 159 304 270 495 301 81 12 275 4 355
-15z m-60 -1825 c411 -54 751 -229 1002 -518 20 -23 47 -57 60 -75 12 -17 25
-34 28 -37 18 -15 140 -232 164 -292 l15 -38 -67 -56 c-37 -30 -76 -63 -87
-72 -203 -168 -480 -305 -775 -382 -286 -75 -681 -75 -990 1 -305 75 -649 261
-871 471 l-46 44 34 74 c38 83 123 228 160 275 98 122 154 181 244 257 194
163 442 280 685 322 49 9 125 22 169 30 84 15 134 15 275 -4z"/>
</g>
</svg>
